<svg xmlns="http://www.w3.org/2000/svg" viewBox="0 0 194.4 91.1"><defs><style>.cls-1{fill:#f6ba42;}.cls-2{fill:none;stroke:#f6ba42;stroke-miterlimit:10;}</style></defs><title>LOGO2</title><g id="字型"><path class="cls-1" d="M45.5,45.1H46a1.4,1.4,0,0,1,1,.5v.2a.9.9,0,0,1,.3.6c0,.3-.3.6-.7.8L37,50.9h-.6a1.1,1.1,0,0,1-.9-.5h-.1a.9.9,0,0,1-.3-.6c0-.4.2-.6.7-.8L39,47.7a1.4,1.4,0,0,1-.2-.7V35.7h-3c-.8,0-1.1-.4-1.1-1s.3-1,1.1-1H46.1c.7,0,1,.3,1,1a.9.9,0,0,1-1,1H43V46.1Zm3.8,8.7c-.6-.1-.9-.4-.9-.8s.1-.3.1-.4h.1a.9.9,0,0,1,.9-.7h.4l4.4,1,3.5-12.6H49c-.8,0-1.1-.4-1-1.2l1.8-9H46.2a1,1,0,0,1-1.1-1c0-.7.4-1,1.1-1H61.4c.7,0,1,.3,1,1a.9.9,0,0,1-1,1H53.9v.3l-1.6,7.9h8.9c.7,0,1,.3,1,.9a.5.5,0,0,1-.1.3L57.9,54.6a.9.9,0,0,1-.9.8h-.4Z"/><path class="cls-1" d="M71.1,54.7a1.4,1.4,0,0,1-.9.5h-.5l-1.2-.5a.7.7,0,0,1-.6-.7.9.9,0,0,1,.3-.7l7.6-9H73.1a1,1,0,0,1-.9.4h-2c-.7,0-1-.4-1-1.1V35.9c0-.7.3-1.1,1-1.1h2a1.1,1.1,0,0,1,.8.3h5.9V32.3H68.1c-.8,0-1.1-.3-1.1-1s.3-1,1.1-1H78.9V27.7c0-.7.3-1,1-1H82c.7,0,1,.3,1,1v2.6H93.9a.9.9,0,0,1,1,1c0,.7-.3,1-1,1H83V35h8.7c.7,0,1,.3,1,1v7.4c0,.7-.3,1.1-1,1.1h-2a1,1,0,0,1-.9-.4H85.4v8.6h4.8V49.4c0-.7.4-1,1.1-1h2c.7,0,1.1.3,1.1,1v4.3a1,1,0,0,1-1.1,1.1h-11c-.7,0-1-.4-1-1.1V44.2H79.8a.9.9,0,0,1-.3.6ZM88.6,37H73.3v5.3H88.6Z"/><path class="cls-1" d="M109.3,32.2c0,.7-.4,1-1.1,1h-2c-.7,0-1.1-.3-1.1-1v-.7h-4.9c-.7,0-1.1-.3-1.1-.9s.4-1,1.1-1h4.9V28.4c0-.7.4-1,1.1-1h2c.7,0,1.1.3,1.1,1v1.2H118V28.4a1,1,0,0,1,1.1-1.1h2a1,1,0,0,1,1.1,1.1v1.2h4.5c.7,0,1,.3,1,1s-.3.9-1,.9h-4.5v.7c0,.7-.4,1-1.1,1h-2c-.7,0-1.1-.3-1.1-1v-.7h-8.7Zm-5,12.5a1,1,0,0,1-1.1,1.1h-2a1,1,0,0,1-1.1-1.1v-7a1,1,0,0,1,1.1-1.1h2a.9.9,0,0,1,1,.6h7.3v-1h-9.9c-.7,0-1.1-.3-1.1-1a1,1,0,0,1,1.1-1h23.5a1,1,0,0,1,1.1,1c0,.7-.4,1-1.1,1h-9.4v1h10.8c.7,0,1.1.4.9,1.2l-.8,6.6a1,1,0,0,1-1.2.9h-1.9c-.4,0-.7-.1-.8-.3a1,1,0,0,1-.2-.9l.7-5.4h-7.5v5.7c0,.7-.4,1-1.1,1h-2c-.7,0-1.1-.3-1.1-1V39.2h-7.2Zm20.1,9.2c0,.7-.4,1-1.1,1h-2l-.8-.2H107l-.8.2h-2c-.7,0-1.1-.3-1.1-1V47.5a1,1,0,0,1,1.1-1.1h19.1a1,1,0,0,1,1.1,1.1Zm-15-13.8c.8,0,1.1.4,1.1,1s-.3,1-1.1,1h-3.1c-.8,0-1.1-.3-1.1-1s.3-1,1.1-1Zm0,2.7c.8,0,1.1.3,1.1,1s-.3,1-1.1,1h-3.1a.9.9,0,0,1-1-1c0-.7.3-1,1-1Zm2.4,5.6h-4.5v1.3h4.5Zm0,4.2V51.5h-4.5v1.2h4.5Zm4.2-4.2v1.2h4.2V48.3H116Zm0,4.2h4.2V51.5H116Zm5.1-12.5a1,1,0,0,1,1.1,1c0,.7-.4,1-1.1,1h-3.2c-.8,0-1.1-.3-1.1-1s.3-1,1.1-1Zm-.6,3c.7,0,1.1.3,1.1,1s-.4.9-1.1.9h-2.6c-.8,0-1.1-.3-1.1-.9s.3-1,1.1-1Z"/><path class="cls-1" d="M141.3,54.1c0,.8-.3,1.1-1.1,1.1h-2c-.7,0-1-.3-1-1.1V47.3l-2.6,1.3-.7.2a1.2,1.2,0,0,1-.8-.4l-.3-.2a1.3,1.3,0,0,1-.3-.7.7.7,0,0,1,.5-.8l4.2-2.1V36.5h-1.1l-.3,4.2a1,1,0,0,1-1.1,1.1h-2a.9.9,0,0,1-1-1.1l.7-11.9a.9.9,0,0,1,1.1-1h2c.7.1,1.1.4,1,1.1l-.3,5.8h1V28c0-.7.3-1,1-1h2c.8,0,1.1.3,1.1,1v6.6h1.4c.7,0,1.1.3,1.1,1s-.4.9-1.1.9h-1.4v6h.3a1.2,1.2,0,0,1,.9.3l.2.3a.8.8,0,0,1,.4.7.9.9,0,0,1-.6.8l-1.2.6Zm9.3.7c-.7-.1-1-.4-.9-1.1s.6-1,1.2-.9l2.7.3V45.3h-8.7c-.7,0-1.1-.3-1.1-1s.4-.9,1.1-.9h8.7v-3h-9.4c-.7,0-1.1-.3-1.1-1s.4-.9,1.1-.9h5.7a.9.9,0,0,1-.1-.5V34h-5.2a.9.9,0,0,1-1-1c0-.7.3-1,1-1h5.2V27.8c0-.7.4-1,1.1-1h2c.7,0,1.1.3,1.1,1V32h4.7c.7,0,1.1.3,1.1,1a1,1,0,0,1-1.1,1H154v4c0,.2-.1.3-.1.5h5.3c.7,0,1,.3,1,.9s-.3,1-1,1h-1.5c0,.1.1.2.1.3v2.7h1.3c.7,0,1,.3,1,.9s-.3,1-1,1h-1.3v9.1c0,.7-.4,1.1-1.2,1Zm1.2-5.1c.4.2.5.4.5.7s-.2.5-.5.8l-.6.3a.8.8,0,0,1-.7.2l-.8-.3-3.9-2.8a.9.9,0,0,1-.4-.7,1,1,0,0,1,.5-.8l.6-.4.7-.2a1.1,1.1,0,0,1,.7.3Z"/><path class="cls-1" d="M69.4,68.6v.2a.5.5,0,0,1-.2.4l-.4.2H67.4a.5.5,0,0,1-.2-.4,3.2,3.2,0,0,0-.8-1.4,1.8,1.8,0,0,0-1.3-.6,1.6,1.6,0,0,0-1.1.5,4.7,4.7,0,0,0-.8,1.4,5.2,5.2,0,0,0-.3,1.8,4.9,4.9,0,0,0,.6,2.7,1.9,1.9,0,0,0,1.8,1,1.5,1.5,0,0,0,1.3-.6,3.4,3.4,0,0,0,.7-1.7.7.7,0,0,1,.7-.5h1l.4.2a.5.5,0,0,1,.2.4c0,.1,0,.1-.1.2A3.7,3.7,0,0,1,68,74.7a4.6,4.6,0,0,1-2.7.8,4.2,4.2,0,0,1-3.4-1.3,4.6,4.6,0,0,1-1.3-3.5,4.8,4.8,0,0,1,.6-2.4,4.4,4.4,0,0,1,1.6-1.7,4.1,4.1,0,0,1,2.3-.6,5.7,5.7,0,0,1,1.8.3,5.6,5.6,0,0,1,1.5,1A4.1,4.1,0,0,1,69.4,68.6Z"/><path class="cls-1" d="M79.2,74.7a.5.5,0,0,1-.2.4.4.4,0,0,1-.4.2h-.9l-.5-.2a.8.8,0,0,1-.2-.5V71.2c-.1-.9-.2-1.6-.2-2.2a3.3,3.3,0,0,0-.5-1.2,1,1,0,0,0-.6-.5h-.9a2,2,0,0,0-1.4.5,1.6,1.6,0,0,0-.5,1.3v5.7a.5.5,0,0,1-.2.4.4.4,0,0,1-.4.2h-1a.6.6,0,0,1-.5-.2c-.1-.1-.1-.2-.1-.4V62.2a.6.6,0,0,1,.1-.4l.5-.2h1l.4.2a.8.8,0,0,1,.2.4v4.2a5.8,5.8,0,0,1,1.9-.3l1.9.2A2.3,2.3,0,0,1,78,67a3.7,3.7,0,0,1,.7,1.4,14.5,14.5,0,0,1,.4,2.5C79.1,71.9,79.2,73.2,79.2,74.7Z"/><path class="cls-1" d="M84.3,66a4.8,4.8,0,0,1,2.4.6,4.4,4.4,0,0,1,1.6,1.7,7,7,0,0,1,.5,2.5,4.7,4.7,0,0,1-.5,2.4,4.1,4.1,0,0,1-1.5,1.7,4,4,0,0,1-2.2.6,4.8,4.8,0,0,1-2.4-.6,4.4,4.4,0,0,1-1.6-1.7,7,7,0,0,1-.5-2.5,4.7,4.7,0,0,1,.5-2.4,3.1,3.1,0,0,1,1.5-1.7A4,4,0,0,1,84.3,66Zm0,1a2.1,2.1,0,0,0-1.2.5,2.7,2.7,0,0,0-.7,1.3,5.8,5.8,0,0,0-.3,1.9,4.3,4.3,0,0,0,.7,2.8,2.3,2.3,0,0,0,1.8.9,1.9,1.9,0,0,0,1.3-.5,4.6,4.6,0,0,0,.7-1.4,8.8,8.8,0,0,0,.2-1.7,4.5,4.5,0,0,0-.7-2.7A2,2,0,0,0,84.3,67Z"/><path class="cls-1" d="M98.6,68.6v.2a.5.5,0,0,1-.2.4l-.4.2H96.7a.5.5,0,0,1-.2-.4,4.7,4.7,0,0,0-.8-1.4,1.8,1.8,0,0,0-1.3-.6,1.6,1.6,0,0,0-1.1.5,4.7,4.7,0,0,0-.8,1.4,5.2,5.2,0,0,0-.3,1.8,4.9,4.9,0,0,0,.6,2.7,1.9,1.9,0,0,0,1.8,1,1.6,1.6,0,0,0,1.3-.6,3.4,3.4,0,0,0,.7-1.7.6.6,0,0,1,.6-.5h1.1l.4.2a.5.5,0,0,1,.2.4c0,.1-.1.1-.1.2a3.7,3.7,0,0,1-1.5,2.2,4.6,4.6,0,0,1-2.7.8,4.6,4.6,0,0,1-3.5-1.3,5,5,0,0,1-1.2-3.5,4.8,4.8,0,0,1,.6-2.4A5,5,0,0,1,92,66.6a4.8,4.8,0,0,1,2.4-.6,5.7,5.7,0,0,1,1.8.3,5.6,5.6,0,0,1,1.5,1A3.8,3.8,0,0,1,98.6,68.6Z"/><path class="cls-1" d="M104.2,66a4.8,4.8,0,0,1,2.4.6,4.1,4.1,0,0,1,1.5,1.7,5.4,5.4,0,0,1,.6,2.5,6,6,0,0,1-.5,2.4,5,5,0,0,1-1.5,1.7,4,4,0,0,1-2.2.6,4.8,4.8,0,0,1-2.4-.6,4.4,4.4,0,0,1-1.6-1.7,5.4,5.4,0,0,1-.6-2.5,4.8,4.8,0,0,1,.6-2.4,3.1,3.1,0,0,1,1.5-1.7A4,4,0,0,1,104.2,66Zm0,1a2.1,2.1,0,0,0-1.2.5,4.1,4.1,0,0,0-.8,1.3,11.1,11.1,0,0,0-.2,1.9,4.3,4.3,0,0,0,.7,2.8,2.3,2.3,0,0,0,1.8.9,1.7,1.7,0,0,0,1.2-.5,3.2,3.2,0,0,0,.8-1.4,8.8,8.8,0,0,0,.2-1.7,4.5,4.5,0,0,0-.7-2.7A2,2,0,0,0,104.2,67Z"/><path class="cls-1" d="M110.3,62.2a.5.5,0,0,1,.3-.4l.6-.2h.5a.8.8,0,0,1,.6.2.5.5,0,0,1,.3.4V74.9a.5.5,0,0,1-.3.4l-.6.2h-.5l-.6-.2a.5.5,0,0,1-.3-.4Z"/><path class="cls-1" d="M117.7,75.5a3.4,3.4,0,0,1-2-.6,4.3,4.3,0,0,1-1.2-1.7,6.1,6.1,0,0,1-.4-2.4,5.3,5.3,0,0,1,.5-2.5,3.9,3.9,0,0,1,1.4-1.7,3.2,3.2,0,0,1,2-.6,5,5,0,0,1,2.6.6,3.5,3.5,0,0,1,1.5,1.7,4.2,4.2,0,0,1,.5,2.2v.2l.3,2.2c.1.6.2,1.2.3,1.6h.1a.7.7,0,0,1-.6.7h-1c-.4,0-.6-.1-.7-.4a1.3,1.3,0,0,0-.1-.6l-1.4.8A4.8,4.8,0,0,1,117.7,75.5Zm0-1.1a1.7,1.7,0,0,0,1.4-.6,3.8,3.8,0,0,0,.9-1.5,5.7,5.7,0,0,0,.3-1.8h0v-.2h0a5.7,5.7,0,0,0-.3-1.5,2.4,2.4,0,0,0-.8-1.1A1.7,1.7,0,0,0,118,67a1,1,0,0,0-.7.6,3.7,3.7,0,0,0-.7,1.4,8.2,8.2,0,0,0,0,3.6,3.9,3.9,0,0,0,.5,1.3C117.3,74.2,117.5,74.4,117.7,74.4Z"/><path class="cls-1" d="M127.8,74.9a.5.5,0,0,1-.6.6h-1a.5.5,0,0,1-.6-.6V67.2h-1.7c-.4,0-.6-.2-.6-.5a.5.5,0,0,1,.6-.6h1.7V62.2a.5.5,0,0,1,.6-.6h1a.5.5,0,0,1,.6.6v3.9h1.7a.5.5,0,0,1,.6.6c0,.3-.2.5-.6.5h-1.7Z"/><path class="cls-1" d="M138,74.1a3.9,3.9,0,0,1-1.4,1,3.7,3.7,0,0,1-1.8.4,4.5,4.5,0,0,1-3.5-1.3,5,5,0,0,1-1.2-3.5,6,6,0,0,1,.5-2.4,4.3,4.3,0,0,1,3.9-2.3,4.7,4.7,0,0,1,2.4.5,4.1,4.1,0,0,1,1.6,1.6,4.6,4.6,0,0,1,.6,2.3.5.5,0,0,1-.2.4.4.4,0,0,1-.4.2H132a3.8,3.8,0,0,0,.9,2.5,2.3,2.3,0,0,0,1.9.9,1.2,1.2,0,0,0,.9-.3l.7-.9a.6.6,0,0,1,.6-.3l.6.2q.6.2.6.6C138.2,73.9,138.2,74,138,74.1ZM134.5,67a2.1,2.1,0,0,0-1,.4,5.3,5.3,0,0,0-.9,1.1,5.8,5.8,0,0,0-.5,1.4h4.6a3.8,3.8,0,0,0-.7-2.1A1.9,1.9,0,0,0,134.5,67Z"/></g><g id="外框"><path class="cls-2" d="M193.9,61.7c0,15.9-6.1,28.9-13.6,28.9H14.1C6.6,90.6.5,77.6.5,61.7S6.6,32.8,14.1,32.8,27.8,26.1,27.8,18C27.8,8.3,58.9.5,97.2.5S166.6,8.3,166.6,18c0,8.1,6.1,14.8,13.7,14.8S193.9,45.7,193.9,61.7Z"/><path class="cls-2" d="M14.1,84.1c-2.6,0-7.6-8.7-7.6-22.4s5-22.5,7.6-22.5c10.7,0,19.3-9.2,19.6-20.6C37,14.3,60.2,7,97.2,7s60.2,7.3,63.5,11.6c.3,11.4,8.9,20.6,19.6,20.6,2.6,0,7.6,8.8,7.6,22.5s-5,22.4-7.6,22.4Z"/></g></svg>